<svg xmlns="http://www.w3.org/2000/svg" width="18" height="18" fill="none" viewBox="0 0 18 18"><path fill="#ECE7E1" fill-rule="evenodd" d="M0 9a9 9 0 0 1 17.432-3.153l.003.006C17.8 6.833 18 7.893 18 9c0 1.107-.2 2.166-.565 3.146l-.003.008A9 9 0 0 1 0 9Zm16.331 2.25A7.665 7.665 0 0 0 16.667 9c0-.783-.118-1.538-.336-2.25h-3.493a15.686 15.686 0 0 1 0 4.5h3.493Zm-3.745 1.333h3.193a7.687 7.687 0 0 1-4.592 3.767 16.032 16.032 0 0 0 1.4-3.767Zm-1.097-1.333a14.347 14.347 0 0 0 0-4.5H6.511a14.358 14.358 0 0 0 0 4.5h4.978Zm-4.702 1.333h4.426a14.75 14.75 0 0 1-.742 2.174 13.172 13.172 0 0 1-.817 1.597 9.591 9.591 0 0 1-.188.299 7.805 7.805 0 0 1-.932 0 9.574 9.574 0 0 1-.188-.299c-.22-.364-.518-.905-.817-1.597a14.699 14.699 0 0 1-.742-2.174ZM5.162 11.25a15.682 15.682 0 0 1 0-4.5H1.67A7.665 7.665 0 0 0 1.333 9c0 .783.118 1.539.336 2.25h3.493Zm-2.941 1.333h3.193a16.036 16.036 0 0 0 1.4 3.767 7.687 7.687 0 0 1-4.593-3.767Zm0-7.166h3.193a16.037 16.037 0 0 1 1.4-3.767A7.687 7.687 0 0 0 2.22 5.417Zm6.313-4.07a13.186 13.186 0 0 0-1.006 1.896 14.792 14.792 0 0 0-.741 2.174h4.426a14.75 14.75 0 0 0-.742-2.174 13.172 13.172 0 0 0-.817-1.597 9.52 9.52 0 0 0-.188-.299 7.782 7.782 0 0 0-.932 0Zm2.652.303c.162.307.336.663.51 1.065.322.748.646 1.657.89 2.702h3.193a7.687 7.687 0 0 0-4.592-3.767Z" clip-rule="evenodd"/></svg>